<svg width="80" height="80" viewBox="0 0 80 80" fill="none" xmlns="http://www.w3.org/2000/svg">
<path d="M5.43479 63L3 65.4348L5.43479 67.8696L7.86958 65.4348L5.43479 63Z" fill="white"/>
<path d="M72.1608 15L70 17.1608L72.1608 19.3216L74.3216 17.1608L72.1608 15Z" fill="white"/>
<rect x="15.6865" y="28.7002" width="50.625" height="30.6" fill="#A4E1AC" stroke="#316450" stroke-width="3.42361"/>
<path d="M25.8125 27C25.8125 28.5627 25.507 30.1102 24.9133 31.5539C24.3197 32.9977 23.4496 34.3096 22.3527 35.4146C21.2558 36.5196 19.9536 37.3961 18.5204 37.9942C17.0873 38.5922 15.5512 38.9 14 38.9L14 27H25.8125Z" fill="#316450"/>
<path d="M56.1875 27C56.1875 28.5627 56.493 30.1102 57.0867 31.5539C57.6803 32.9977 58.5504 34.3096 59.6473 35.4146C60.7442 36.5196 62.0464 37.3961 63.4796 37.9942C64.9127 38.5922 66.4488 38.9 68 38.9V27H56.1875Z" fill="#316450"/>
<path d="M25.8125 61C25.8125 59.4373 25.507 57.8898 24.9133 56.4461C24.3197 55.0023 23.4496 53.6904 22.3527 52.5854C21.2558 51.4804 19.9536 50.6039 18.5204 50.0058C17.0873 49.4078 15.5512 49.1 14 49.1L14 61H25.8125Z" fill="#316450"/>
<path d="M56.1875 61C56.1875 59.4373 56.493 57.8898 57.0867 56.4461C57.6803 55.0023 58.5504 53.6904 59.6473 52.5854C60.7442 51.4804 62.0464 50.6039 63.4796 50.0058C64.9127 49.4078 66.4488 49.1 68 49.1V61H56.1875Z" fill="#316450"/>
<path d="M42.1864 34.1396V36.0389H44.8424V39.0028H39.9832C38.9872 39.0028 38.2024 39.751 38.2024 40.7006C38.2024 41.6502 39.0174 42.3983 39.9832 42.3983H41.3111C43.9973 42.3983 46.1704 44.4702 46.1704 47.0313C46.1704 49.3046 44.45 51.2038 42.1864 51.6067V54.2253H39.0777V51.693H36.4217V48.7291H41.281C42.277 48.7291 43.0617 47.9809 43.0617 47.0313C43.0617 46.0817 42.2468 45.3335 41.281 45.3335H39.953C37.2668 45.3335 35.0938 43.2616 35.0938 40.7006C35.0938 38.4273 36.8141 36.5281 39.0777 36.1252V34.1396H42.1864Z" fill="#316450"/>
<rect x="12.6865" y="25.7002" width="50.625" height="30.6" fill="#A4E1AC" stroke="#55A784" stroke-width="3.42361"/>
<path d="M22.8125 24C22.8125 25.5627 22.507 27.1102 21.9133 28.5539C21.3197 29.9977 20.4496 31.3096 19.3527 32.4146C18.2558 33.5196 16.9536 34.3961 15.5204 34.9942C14.0873 35.5922 12.5512 35.9 11 35.9L11 24H22.8125Z" fill="#55A784"/>
<path d="M53.1875 24C53.1875 25.5627 53.493 27.1102 54.0867 28.5539C54.6803 29.9977 55.5504 31.3096 56.6473 32.4146C57.7442 33.5196 59.0464 34.3961 60.4796 34.9942C61.9127 35.5922 63.4488 35.9 65 35.9V24H53.1875Z" fill="#55A784"/>
<path d="M22.8125 58C22.8125 56.4373 22.507 54.8898 21.9133 53.4461C21.3197 52.0023 20.4496 50.6904 19.3527 49.5854C18.2558 48.4804 16.9536 47.6039 15.5204 47.0058C14.0873 46.4078 12.5512 46.1 11 46.1L11 58H22.8125Z" fill="#55A784"/>
<path d="M53.1875 58C53.1875 56.4373 53.493 54.8898 54.0867 53.4461C54.6803 52.0023 55.5504 50.6904 56.6473 49.5854C57.7442 48.4804 59.0464 47.6039 60.4796 47.0058C61.9127 46.4078 63.4488 46.1 65 46.1V58H53.1875Z" fill="#55A784"/>
<path d="M39.1864 31.1396V33.0389H41.8424V36.0028H36.9832C35.9872 36.0028 35.2024 36.751 35.2024 37.7006C35.2024 38.6502 36.0174 39.3983 36.9832 39.3983H38.3111C40.9973 39.3983 43.1704 41.4702 43.1704 44.0313C43.1704 46.3046 41.45 48.2038 39.1864 48.6067V51.2253H36.0777V48.693H33.4217V45.7291H38.281C39.277 45.7291 40.0617 44.9809 40.0617 44.0313C40.0617 43.0817 39.2468 42.3335 38.281 42.3335H36.953C34.2668 42.3335 32.0938 40.2616 32.0938 37.7006C32.0938 35.4273 33.8141 33.5281 36.0777 33.1252V31.1396H39.1864Z" fill="#55A784"/>
</svg>
